<svg xmlns="http://www.w3.org/2000/svg" version="1.1" xmlns:xlink="http://www.w3.org/1999/xlink" xmlns:svgjs="http://svgjs.dev/svgjs" width="1920" height="1080" preserveAspectRatio="none" viewBox="0 0 1920 1080"><g mask="url(&quot;#SvgjsMask3964&quot;)" fill="none"><rect width="1920" height="1080" x="0" y="0" fill="url(&quot;#SvgjsLinearGradient3965&quot;)"></rect><path d="M1984 1080L0 1080 L0 838.22Q45.94 724.16, 160 770.11Q153.94 668.05, 256 661.99Q330.12 576.11, 416 650.22Q484.24 622.46, 512 690.69Q619.2 637.89, 672 745.1Q769.69 682.79, 832 780.48Q906.52 759, 928 833.53Q969.68 779.21, 1024 820.9Q1057.02 757.92, 1120 790.94Q1105.89 680.84, 1216 666.73Q1302.69 657.42, 1312 744.11Q1363.01 635.12, 1472 686.12Q1591.88 646, 1632 765.88Q1677.17 651.05, 1792 696.22Q1849.34 657.56, 1888 714.89Q1978.91 709.8, 1984 800.7z" fill="rgba(242, 242, 242, 1)"></path><path d="M2048 1080L0 1080 L0 803.75Q39.88 747.63, 96 787.51Q233.43 764.94, 256 902.37Q376.31 862.68, 416 982.99Q447.4 854.39, 576 885.79Q593.13 806.92, 672 824.06Q729.37 785.42, 768 842.79Q897.59 812.38, 928 941.96Q971.91 825.87, 1088 869.78Q1147.04 832.82, 1184 891.85Q1215.24 763.1, 1344 794.34Q1397.59 751.93, 1440 805.52Q1527.34 796.86, 1536 884.19Q1606.22 794.41, 1696 864.63Q1777.86 850.49, 1792 932.35Q1866.05 910.39, 1888 984.44Q1911.98 848.42, 2048 872.41z" fill="rgba(203, 203, 203, 1)"></path><path d="M1984 1080L0 1080 L0 987.27Q101.76 929.03, 160 1030.8Q257.68 1032.48, 256 1130.16Q211.14 989.3, 352 944.44Q467.2 899.64, 512 1014.85Q549.58 956.43, 608 994.01Q640.41 930.42, 704 962.84Q744.75 907.59, 800 948.33Q889.92 942.25, 896 1032.16Q959.56 935.73, 1056 999.29Q1169.27 952.56, 1216 1065.83Q1269.79 1023.62, 1312 1077.41Q1352.8 958.21, 1472 999.01Q1532.79 963.8, 1568 1024.6Q1653.7 950.3, 1728 1036Q1822 970, 1888 1064Q1899.65 979.65, 1984 991.3z" fill="rgba(255, 255, 255, 1)"></path></g><defs><mask id="SvgjsMask3964"><rect width="1920" height="1080" fill="#ffffff"></rect></mask><linearGradient x1="50%" y1="0%" x2="50%" y2="100%" gradientUnits="userSpaceOnUse" id="SvgjsLinearGradient3965"><stop stop-color="rgba(0, 25, 52, 1)" offset="0"></stop><stop stop-color="rgba(25, 133, 213, 1)" offset="0.32"></stop><stop stop-color="rgba(113, 185, 216, 1)" offset="0.52"></stop><stop stop-color="rgba(226, 237, 243, 1)" offset="1"></stop></linearGradient></defs></svg>